<?xml version="1.0" encoding="UTF-8"?>
<svg width="700pt" height="700pt" version="1.1" viewBox="0 0 700 700" xmlns="http://www.w3.org/2000/svg">
 <path d="m96.652 263.53h506.75c2.7148 0 4.9805 2.2617 4.9805 5.0352 0 0.39453-0.054687 0.79297-0.11328 1.1875l-47.535 286.05c-0.39453 2.4336-2.4883 4.1875-4.9219 4.1875h-411.62c-2.6016 0-4.7539-1.9805-4.9805-4.582l-47.535-286.05c-0.39453-2.7148 1.4141-5.2617 4.1328-5.7148zm79.902-98.125 32.707-99.371c4.9219-13.355 12.562-24.504 22.465-32.367 9.9609-7.9219 22.012-12.395 35.652-12.395h25.184c1.3594-11.941 11.543-21.277 23.824-21.277h67.227c12.281 0 22.465 9.3359 23.824 21.277h25.184c13.637 0 25.691 4.4688 35.652 12.395 9.9023 7.8672 17.598 19.016 22.523 32.367l32.652 99.371h90.938c7.4688 0 14.203 3.0547 19.125 7.9219 4.8672 4.9219 7.9219 11.656 7.9219 19.125v14.035c0 7.4141-3.0547 14.148-7.9219 19.07-4.9219 4.9219-11.656 7.9219-19.125 7.9219h-528.76c-7.4688 0-14.203-3-19.125-7.9219-4.8672-4.9219-7.9219-11.656-7.9219-19.07v-14.035c0-7.4688 3.0547-14.203 7.9219-19.125 4.9219-4.8672 11.656-7.9219 19.125-7.9219h90.938zm315.31 0-29.312-89.125c-3-8.1484-7.4141-14.77-12.902-19.125-4.6953-3.7344-10.469-5.8281-17.031-5.8281h-25.918c-2.9414 10.016-12.168 17.371-23.09 17.371h-67.227c-10.863 0-20.145-7.3555-23.031-17.371h-25.973c-6.5625 0-12.336 2.0938-17.031 5.8281-5.4883 4.3555-9.9023 10.977-12.902 19.125l-29.312 89.125h283.73zm-229.46 296.86c1.3008 8.207-4.2422 15.902-12.395 17.203-8.1484 1.3594-15.844-4.1875-17.203-12.336l-17.598-105.88c-1.3008-8.1484 4.2422-15.844 12.395-17.203 8.1484-1.3008 15.902 4.2422 17.203 12.395zm102.65 2.4336c0 8.3203-6.7344 15.051-15.051 15.051-8.2617 0-14.996-6.7344-14.996-15.051v-105.88c0-8.2617 6.7344-14.996 14.996-14.996 8.3203 0 15.051 6.7344 15.051 14.996zm102.14 2.4336c-1.3008 8.1484-8.9961 13.695-17.145 12.336-8.207-1.3008-13.75-8.9961-12.395-17.203l17.543-105.82c1.3594-8.1484 9.0547-13.695 17.203-12.395 8.207 1.3594 13.695 9.0547 12.395 17.203l-17.598 105.88z" fill-rule="evenodd"/>
</svg>
